<svg width="27" height="27" viewBox="0 0 27 27" fill="none" xmlns="http://www.w3.org/2000/svg">
<path d="M13.5 0.583496C10.9948 0.588256 8.54506 1.32144 6.44913 2.69374C4.3532 4.06604 2.70158 6.01824 1.69543 8.31253C0.689275 10.6068 0.372029 13.1442 0.782327 15.6156C1.19262 18.087 2.31276 20.3857 4.00629 22.2318C5.21584 23.5429 6.68384 24.5893 8.3178 25.305C9.95175 26.0206 11.7162 26.3901 13.5 26.3901C15.2839 26.3901 17.0483 26.0206 18.6823 25.305C20.3162 24.5893 21.7842 23.5429 22.9938 22.2318C24.6873 20.3857 25.8075 18.087 26.2178 15.6156C26.6281 13.1442 26.3108 10.6068 25.3047 8.31253C24.2985 6.01824 22.6469 4.06604 20.551 2.69374C18.455 1.32144 16.0053 0.588256 13.5 0.583496ZM13.5 23.8335C10.8243 23.8294 8.25447 22.7876 6.33129 20.9272C6.91518 19.5058 7.90846 18.29 9.18491 17.4344C10.4614 16.5788 11.9634 16.122 13.5 16.122C15.0367 16.122 16.5387 16.5788 17.8152 17.4344C19.0916 18.29 20.0849 19.5058 20.6688 20.9272C18.7456 22.7876 16.1758 23.8294 13.5 23.8335ZM10.9167 10.9168C10.9167 10.4059 11.0682 9.90643 11.3521 9.48161C11.6359 9.05678 12.0394 8.72567 12.5114 8.53014C12.9835 8.33461 13.5029 8.28346 14.004 8.38313C14.5051 8.48281 14.9654 8.72885 15.3267 9.09014C15.688 9.45142 15.9341 9.91173 16.0337 10.4128C16.1334 10.914 16.0823 11.4334 15.8867 11.9054C15.6912 12.3775 15.3601 12.7809 14.9353 13.0648C14.5104 13.3487 14.011 13.5002 13.5 13.5002C12.8149 13.5002 12.1578 13.228 11.6734 12.7435C11.1889 12.2591 10.9167 11.602 10.9167 10.9168ZM22.4255 18.6668C21.2714 16.6929 19.4952 15.1574 17.375 14.301C18.0327 13.5553 18.4612 12.6356 18.6092 11.6524C18.7571 10.6691 18.6182 9.66406 18.2091 8.7578C17.8 7.85155 17.1381 7.08259 16.3028 6.5432C15.4675 6.00381 14.4944 5.7169 13.5 5.7169C12.5057 5.7169 11.5325 6.00381 10.6972 6.5432C9.86195 7.08259 9.20005 7.85155 8.79095 8.7578C8.38185 9.66406 8.24294 10.6691 8.39089 11.6524C8.53884 12.6356 8.96737 13.5553 9.62504 14.301C7.5049 15.1574 5.72869 16.6929 4.57463 18.6668C3.65489 17.1002 3.16893 15.3168 3.16671 13.5002C3.16671 10.7596 4.2554 8.13127 6.19327 6.19339C8.13115 4.25552 10.7595 3.16683 13.5 3.16683C16.2406 3.16683 18.8689 4.25552 20.8068 6.19339C22.7447 8.13127 23.8334 10.7596 23.8334 13.5002C23.8312 15.3168 23.3452 17.1002 22.4255 18.6668Z" fill="black"/>
</svg>
