<svg width="24" height="26" viewBox="0 0 24 26" fill="none" xmlns="http://www.w3.org/2000/svg">
<path d="M9.5 8H17C17.3315 8 17.6495 7.8683 17.8839 7.63388C18.1183 7.39946 18.25 7.08152 18.25 6.75C18.25 6.41848 18.1183 6.10054 17.8839 5.86612C17.6495 5.6317 17.3315 5.5 17 5.5H9.5C9.16848 5.5 8.85054 5.6317 8.61612 5.86612C8.3817 6.10054 8.25 6.41848 8.25 6.75C8.25 7.08152 8.3817 7.39946 8.61612 7.63388C8.85054 7.8683 9.16848 8 9.5 8ZM7 13H17C17.3315 13 17.6495 12.8683 17.8839 12.6339C18.1183 12.3995 18.25 12.0815 18.25 11.75C18.25 11.4185 18.1183 11.1005 17.8839 10.8661C17.6495 10.6317 17.3315 10.5 17 10.5H7C6.66848 10.5 6.35054 10.6317 6.11612 10.8661C5.8817 11.1005 5.75 11.4185 5.75 11.75C5.75 12.0815 5.8817 12.3995 6.11612 12.6339C6.35054 12.8683 6.66848 13 7 13ZM7 18H17C17.3315 18 17.6495 17.8683 17.8839 17.6339C18.1183 17.3995 18.25 17.0815 18.25 16.75C18.25 16.4185 18.1183 16.1005 17.8839 15.8661C17.6495 15.6317 17.3315 15.5 17 15.5H7C6.66848 15.5 6.35054 15.6317 6.11612 15.8661C5.8817 16.1005 5.75 16.4185 5.75 16.75C5.75 17.0815 5.8817 17.3995 6.11612 17.6339C6.35054 17.8683 6.66848 18 7 18ZM22 0.5H2C1.66848 0.5 1.35054 0.631696 1.11612 0.866116C0.881696 1.10054 0.75 1.41848 0.75 1.75V24.25C0.75 24.4821 0.814643 24.7097 0.936687 24.9072C1.05873 25.1046 1.23335 25.2642 1.44098 25.368C1.64862 25.4718 1.88106 25.5158 2.11226 25.4949C2.34346 25.4741 2.56429 25.3893 2.75 25.25L5.3375 23.3125L7.9125 25.25C8.12887 25.4123 8.39204 25.5 8.6625 25.5C8.93296 25.5 9.19613 25.4123 9.4125 25.25L12 23.3125L14.5875 25.25C14.8039 25.4123 15.067 25.5 15.3375 25.5C15.608 25.5 15.8711 25.4123 16.0875 25.25L18.6625 23.3125L21.25 25.25C21.4366 25.3891 21.6583 25.4733 21.8902 25.4932C22.1221 25.5131 22.3549 25.4678 22.5625 25.3625C22.7686 25.2586 22.942 25.0997 23.0633 24.9033C23.1847 24.707 23.2493 24.4808 23.25 24.25V1.75C23.25 1.41848 23.1183 1.10054 22.8839 0.866116C22.6495 0.631696 22.3315 0.5 22 0.5ZM20.75 21.75L19.4125 20.75C19.1961 20.5877 18.933 20.5 18.6625 20.5C18.392 20.5 18.1289 20.5877 17.9125 20.75L15.3375 22.6875L12.75 20.75C12.5336 20.5877 12.2705 20.5 12 20.5C11.7295 20.5 11.4664 20.5877 11.25 20.75L8.6625 22.6875L6.0875 20.75C5.87113 20.5877 5.60796 20.5 5.3375 20.5C5.06704 20.5 4.80387 20.5877 4.5875 20.75L3.25 21.75V3H20.75V21.75Z" fill="black"/>
</svg>
