<svg width="29" height="24" viewBox="0 0 29 24" fill="none" xmlns="http://www.w3.org/2000/svg">
<path d="M14.8873 12.2932C15.5765 11.6773 16.1293 10.9157 16.5082 10.0599C16.8871 9.20405 17.0832 8.27412 17.0832 7.33317C17.0832 5.56506 16.4027 3.86937 15.1916 2.61913C13.9804 1.36888 12.3377 0.666504 10.6248 0.666504C8.91198 0.666504 7.26928 1.36888 6.05811 2.61913C4.84693 3.86937 4.1665 5.56506 4.1665 7.33317C4.16649 8.27412 4.36258 9.20405 4.74146 10.0599C5.12033 10.9157 5.67313 11.6773 6.36234 12.2932C4.55418 13.1383 3.02011 14.5032 1.94352 16.2246C0.866935 17.9459 0.293405 19.9509 0.291504 21.9998C0.291504 22.3535 0.42759 22.6926 0.669824 22.9426C0.912059 23.1927 1.2406 23.3332 1.58317 23.3332C1.92574 23.3332 2.25428 23.1927 2.49652 22.9426C2.73875 22.6926 2.87484 22.3535 2.87484 21.9998C2.87484 19.8781 3.69135 17.8433 5.14476 16.343C6.59817 14.8427 8.56941 13.9998 10.6248 13.9998C12.6803 13.9998 14.6515 14.8427 16.1049 16.343C17.5583 17.8433 18.3748 19.8781 18.3748 21.9998C18.3748 22.3535 18.5109 22.6926 18.7532 22.9426C18.9954 23.1927 19.3239 23.3332 19.6665 23.3332C20.0091 23.3332 20.3376 23.1927 20.5799 22.9426C20.8221 22.6926 20.9582 22.3535 20.9582 21.9998C20.9563 19.9509 20.3827 17.9459 19.3062 16.2246C18.2296 14.5032 16.6955 13.1383 14.8873 12.2932ZM10.6248 11.3332C9.85844 11.3332 9.10924 11.0986 8.472 10.659C7.83476 10.2195 7.33809 9.59481 7.0448 8.8639C6.75151 8.133 6.67478 7.32873 6.8243 6.55281C6.97381 5.77689 7.34287 5.06415 7.8848 4.50474C8.42673 3.94533 9.11719 3.56437 9.86886 3.41003C10.6205 3.25569 11.3997 3.3349 12.1077 3.63765C12.8158 3.9404 13.421 4.45309 13.8468 5.11089C14.2726 5.76869 14.4998 6.54205 14.4998 7.33317C14.4998 8.39404 14.0916 9.41145 13.3649 10.1616C12.6382 10.9117 11.6526 11.3332 10.6248 11.3332ZM23.2057 11.7598C24.0323 10.7989 24.5723 9.61191 24.7606 8.34162C24.9489 7.07133 24.7775 5.77194 24.2671 4.59984C23.7567 3.42774 22.929 2.4329 21.8836 1.73507C20.8382 1.03724 19.6198 0.66616 18.3748 0.666504C18.0323 0.666504 17.7037 0.80698 17.4615 1.05703C17.2193 1.30708 17.0832 1.64622 17.0832 1.99984C17.0832 2.35346 17.2193 2.6926 17.4615 2.94265C17.7037 3.19269 18.0323 3.33317 18.3748 3.33317C19.4026 3.33317 20.3882 3.7546 21.1149 4.50474C21.8416 5.25489 22.2498 6.2723 22.2498 7.33317C22.248 8.03349 22.0681 8.72104 21.7281 9.32707C21.3881 9.93309 20.8999 10.4363 20.3123 10.7865C20.1208 10.9005 19.9609 11.0634 19.8478 11.2595C19.7347 11.4556 19.6723 11.6784 19.6665 11.9065C19.6611 12.1329 19.7116 12.3569 19.8133 12.5575C19.915 12.7581 20.0645 12.9287 20.2478 13.0532L20.7515 13.3998L20.9194 13.4932C22.4764 14.2555 23.7899 15.4612 24.7053 16.9683C25.6206 18.4754 26.0997 20.2211 26.0861 21.9998C26.0861 22.3535 26.2222 22.6926 26.4644 22.9426C26.7066 23.1927 27.0352 23.3332 27.3778 23.3332C27.7203 23.3332 28.0489 23.1927 28.2911 22.9426C28.5333 22.6926 28.6694 22.3535 28.6694 21.9998C28.68 19.9537 28.1835 17.9388 27.2272 16.1466C26.2709 14.3543 24.8866 12.8443 23.2057 11.7598Z" fill="black"/>
</svg>
