<svg width="24" height="27" viewBox="0 0 24 27" fill="none" xmlns="http://www.w3.org/2000/svg">
<path d="M22.6668 8.33316L14.6668 1.53899C13.9334 0.90355 12.984 0.552246 12.0001 0.552246C11.0162 0.552246 10.0668 0.90355 9.33346 1.53899L1.33346 8.33316C0.909951 8.70009 0.571993 9.15021 0.342089 9.65356C0.112185 10.1569 -0.00439008 10.7019 0.000126392 11.2523V22.5415C0.000126392 23.5692 0.421554 24.5548 1.1717 25.2815C1.92184 26.0082 2.93926 26.4165 4.00013 26.4165H20.0001C21.061 26.4165 22.0784 26.0082 22.8286 25.2815C23.5787 24.5548 24.0001 23.5692 24.0001 22.5415V11.2394C24.0027 10.6912 23.8853 10.1486 23.6554 9.64766C23.4256 9.14668 23.0886 8.69864 22.6668 8.33316ZM14.6668 23.8332H9.33346V17.3748C9.33346 17.0323 9.47394 16.7037 9.72398 16.4615C9.97403 16.2192 10.3132 16.0832 10.6668 16.0832H13.3335C13.6871 16.0832 14.0262 16.2192 14.2763 16.4615C14.5263 16.7037 14.6668 17.0323 14.6668 17.3748V23.8332ZM21.3335 22.5415C21.3335 22.8841 21.193 23.2126 20.9429 23.4548C20.6929 23.6971 20.3537 23.8332 20.0001 23.8332H17.3335V17.3748C17.3335 16.3471 16.912 15.3615 16.1619 14.6348C15.4117 13.9081 14.3943 13.4998 13.3335 13.4998H10.6668C9.60593 13.4998 8.58851 13.9081 7.83837 14.6348C7.08822 15.3615 6.66679 16.3471 6.66679 17.3748V23.8332H4.00013C3.6465 23.8332 3.30737 23.6971 3.05732 23.4548C2.80727 23.2126 2.66679 22.8841 2.66679 22.5415V11.2394C2.66703 11.056 2.70758 10.8748 2.78575 10.7077C2.86391 10.5407 2.9779 10.3917 3.12013 10.2707L11.1201 3.48941C11.3634 3.28233 11.6762 3.16813 12.0001 3.16813C12.324 3.16813 12.6368 3.28233 12.8801 3.48941L20.8801 10.2707C21.0223 10.3917 21.1363 10.5407 21.2145 10.7077C21.2927 10.8748 21.3332 11.056 21.3335 11.2394V22.5415Z" fill="black"/>
</svg>
